<svg width="20" height="20" viewBox="0 0 20 20" fill="none" xmlns="http://www.w3.org/2000/svg">
<path d="M15 6.66671H14.1667V5.00004C14.1667 2.70004 12.3 0.833374 10 0.833374C7.70004 0.833374 5.83337 2.70004 5.83337 5.00004V6.66671H5.00004C4.08337 6.66671 3.33337 7.41671 3.33337 8.33337V16.6667C3.33337 17.5834 4.08337 18.3334 5.00004 18.3334H15C15.9167 18.3334 16.6667 17.5834 16.6667 16.6667V8.33337C16.6667 7.41671 15.9167 6.66671 15 6.66671ZM10 14.1667C9.08337 14.1667 8.33337 13.4167 8.33337 12.5C8.33337 11.5834 9.08337 10.8334 10 10.8334C10.9167 10.8334 11.6667 11.5834 11.6667 12.5C11.6667 13.4167 10.9167 14.1667 10 14.1667ZM12.5834 6.66671H7.41671V5.00004C7.41671 3.57504 8.57504 2.41671 10 2.41671C11.425 2.41671 12.5834 3.57504 12.5834 5.00004V6.66671Z" fill="#A5B0C1"/>
</svg>
